# xmcd CD database file
#
# Track frame offsets:
#	150
#	10128
#	20308
#	33704
#	45798
#	55435
#	69192
#	83214
#	94657
#	107636
#	115683
#	127660
#	140743
#	150479
#	162929
#	176280
#	187390
#	199434
#	212503
#	224732
#	237666
#	248753
#	260205
#	271529
#	285018
#	298515
#
# Disc length: 4134 seconds
#
# Revision: 4
# Processed by: cddbd v1.5.1PL0 Copyright (c) Steve Scherf et al.
# Submitted via: Feurio! 1.68 - http://www.feurio.com
#
DISCID=7010241a
DTITLE=Various Artist - He Got Out His Big Ten Inch - CD3
DYEAR=2004
DGENRE=blues
TTITLE0=Bull Moose Jackson - Big Ten Inch
TTITLE1=John Lee Hooker - I'm A Boogie Man
TTITLE2=Julia Lee - Don't Come Too Soon
TTITLE3=Amos Milburn - Pool Playing Blues
TTITLE4=Walter Brown - Gonna Play With Your Woman
TTITLE5=Floyd Dixon - Too Much Jelly Roll
TTITLE6=Rosetta Howard - Too Many Drivers
TTITLE7=Tiny Bradshaw - I'm A Hi-Ballin' Daddy
TTITLE8=Robert Henry - Something's Wrong With My Little Machine
TTITLE9=Helen Humes - I'm Gonna Let Him Ride
TTITLE10=Danny Taylor - Coffee Daddy Blues
TTITLE11=Wynonie Harris - Keep on Churning (Til the Butter Comes)
TTITLE12=Fats Noel - Ride, Daddy, Ride
TTITLE13=The Sharps and Flats - I Knew He Would
TTITLE14=Dorothy Ellis - Drill, Daddy, Drill
TTITLE15=Roy Brown - Butcher Pete
TTITLE16=Lonnie Johnson - Jelly Roll Baker
TTITLE17=Fluffy Hunter - The Walkin' Blues
TTITLE18=Todd Rhodes - Rocket 69
TTITLE19=Pete 'Guitar' Lewis - Chocolate Pork Chop Man
TTITLE20=The Sultans - Lemon Squeezing Daddy
TTITLE21=Julia Lee - Do You Want It
TTITLE22=Billy Ward and The Dominoes - Sixty Minute Man
TTITLE23=John Lee Hooker - Too Much Boogie
TTITLE24=Eunice Davis - Work, Daddy, Work
TTITLE25=The Swallows - Bicycle Tillie
EXTD=YEAR: 2004
EXTT0=
EXTT1=
EXTT2=
EXTT3=
EXTT4=
EXTT5=
EXTT6=
EXTT7=
EXTT8=
EXTT9=
EXTT10=
EXTT11=
EXTT12=
EXTT13=
EXTT14=
EXTT15=
EXTT16=
EXTT17=
EXTT18=
EXTT19=
EXTT20=
EXTT21=
EXTT22=
EXTT23=
EXTT24=
EXTT25=
PLAYORDER=
